<svg width="32" height="33" viewBox="0 0 32 33" fill="none" xmlns="http://www.w3.org/2000/svg">
<path d="M16 32.3458C24.8366 32.3458 32 25.1824 32 16.3458C32 7.50927 24.8366 0.345825 16 0.345825C7.16344 0.345825 0 7.50927 0 16.3458C0 25.1824 7.16344 32.3458 16 32.3458Z" fill="#FCFCFC"/>
<path d="M18.1167 8.92949C18.7563 8.24468 19.189 7.29391 19.0706 6.34583C18.149 6.37871 17.0321 6.88678 16.3706 7.57153C15.7777 8.17774 15.2585 9.14658 15.3971 10.0761C16.4254 10.1456 17.4759 9.61319 18.1167 8.92949ZM20.0793 15.477C20.0596 13.3515 21.7621 12.3306 21.8375 12.2813C20.8803 10.8379 19.3897 10.6404 18.8589 10.6181C17.5896 10.4849 16.384 11.3868 15.7396 11.3868C15.0978 11.3868 14.1051 10.6356 13.0524 10.6558C11.6685 10.6786 10.3934 11.4845 9.68261 12.7617C8.245 15.331 9.31414 19.1372 10.715 21.2213C11.3998 22.2416 12.2152 23.3861 13.2859 23.3447C14.3195 23.3033 14.7091 22.6573 15.9561 22.6573C17.2036 22.6573 17.5529 23.3447 18.6443 23.324C19.7549 23.3033 20.4577 22.2841 21.1367 21.2606C21.9223 20.0774 22.2462 18.9318 22.2647 18.8739C22.2409 18.8601 20.1021 18.0187 20.0793 15.477Z" fill="#131313"/>
</svg>
