<svg width="32" height="33" viewBox="0 0 32 33" fill="none" xmlns="http://www.w3.org/2000/svg">
<circle cx="16" cy="16.3458" r="16" fill="white"/>
<path d="M10.4324 18.4318L9.73625 21.0307L7.19176 21.0845C6.43133 19.6741 6 18.0604 6 16.3456C6 14.6873 6.40328 13.1236 7.11813 11.7467H7.11867L9.38399 12.162L10.3763 14.4137C10.1686 15.0192 10.0554 15.6692 10.0554 16.3456C10.0555 17.0796 10.1885 17.7829 10.4324 18.4318Z" fill="#FBBB00"/>
<path d="M25.8254 14.4777C25.9402 15.0826 26.0001 15.7073 26.0001 16.3458C26.0001 17.0617 25.9248 17.7601 25.7814 18.4337C25.2946 20.726 24.0226 22.7276 22.2606 24.1441L22.26 24.1435L19.4067 23.9979L19.0029 21.4771C20.1721 20.7914 21.0859 19.7183 21.5672 18.4337H16.2199V14.4777H21.6452H25.8254Z" fill="#518EF8"/>
<path d="M22.2599 24.1436L22.2605 24.1442C20.5468 25.5216 18.3698 26.3458 16.0001 26.3458C12.1918 26.3458 8.88084 24.2172 7.19181 21.0848L10.4325 18.4321C11.277 20.6859 13.4512 22.2903 16.0001 22.2903C17.0956 22.2903 18.1221 21.9942 19.0028 21.4771L22.2599 24.1436Z" fill="#28B446"/>
<path d="M22.383 8.64799L19.1434 11.3002C18.2319 10.7304 17.1544 10.4013 16 10.4013C13.3934 10.4013 11.1786 12.0793 10.3764 14.4139L7.11871 11.7469H7.11816C8.78246 8.53811 12.1352 6.34583 16 6.34583C18.4264 6.34583 20.6511 7.21012 22.383 8.64799Z" fill="#F14336"/>
</svg>
