<svg width="179" height="29" viewBox="0 0 179 29" fill="none" xmlns="http://www.w3.org/2000/svg">
<path d="M8.1284 29C6.67717 29 5.23824 28.754 3.81161 28.2621C2.38497 27.7701 1.22891 27.0322 0.343414 26.0483C0.0728453 25.7532 -0.0378417 25.4211 0.0113525 25.0522C0.0605467 24.6832 0.245025 24.3634 0.564788 24.0929C0.909147 23.8469 1.26581 23.7485 1.63476 23.7977C2.00372 23.8469 2.31118 24.0068 2.55715 24.2774C3.14748 24.9661 3.92229 25.4949 4.88158 25.8639C5.86547 26.2328 6.94774 26.4173 8.1284 26.4173C9.94859 26.4173 11.2645 26.1098 12.0762 25.4949C12.8879 24.8554 13.3061 24.0929 13.3307 23.2074C13.3307 22.3219 12.9125 21.5963 12.0762 21.0305C11.2399 20.4402 9.8625 19.9852 7.94392 19.6654C5.45961 19.2718 3.63943 18.5831 2.48336 17.5992C1.3273 16.6154 0.749266 15.447 0.749266 14.0941C0.749266 12.8397 1.08133 11.7943 1.74545 10.958C2.40957 10.1217 3.29507 9.49449 4.40194 9.07634C5.50881 8.65818 6.72636 8.44911 8.05461 8.44911C9.70262 8.44911 11.117 8.73198 12.2976 9.29771C13.5029 9.86344 14.4745 10.626 15.2124 11.5852C15.4583 11.905 15.5567 12.2371 15.5075 12.5814C15.4583 12.9258 15.2616 13.2087 14.9172 13.43C14.622 13.6022 14.2777 13.6637 13.8841 13.6145C13.5152 13.5407 13.1954 13.3562 12.9248 13.0611C12.3099 12.3478 11.5966 11.8312 10.7849 11.5115C9.97318 11.1671 9.03849 10.9949 7.98082 10.9949C6.62798 10.9949 5.5457 11.2778 4.734 11.8435C3.92229 12.3846 3.51644 13.0734 3.51644 13.9097C3.51644 14.4754 3.66402 14.9673 3.95919 15.3855C4.27895 15.8036 4.80779 16.1726 5.5457 16.4924C6.30821 16.8121 7.36589 17.0827 8.71873 17.3041C10.5635 17.5992 12.0147 18.042 13.0724 18.6323C14.1547 19.1981 14.9172 19.8745 15.36 20.6616C15.8273 21.4241 16.061 22.2604 16.061 23.1705C16.061 24.3265 15.7166 25.3473 15.0279 26.2328C14.3638 27.0937 13.4291 27.7701 12.2238 28.2621C11.0432 28.754 9.67802 29 8.1284 29ZM28.8661 28.8155C27.5624 28.8155 26.3941 28.5081 25.361 27.8931C24.3525 27.2782 23.5531 26.4419 22.9628 25.3842C22.3724 24.3019 22.0773 23.0721 22.0773 21.6947V3.65267C22.0773 3.23452 22.2003 2.89016 22.4462 2.61959C22.7168 2.34902 23.0612 2.21374 23.4793 2.21374C23.8975 2.21374 24.2418 2.34902 24.5124 2.61959C24.783 2.89016 24.9182 3.23452 24.9182 3.65267V21.6947C24.9182 22.9491 25.2872 23.9822 26.0251 24.7939C26.763 25.581 27.71 25.9746 28.8661 25.9746H29.8623C30.2558 25.9746 30.5756 26.1098 30.8215 26.3804C31.0675 26.651 31.1905 26.9953 31.1905 27.4135C31.1905 27.8316 31.0429 28.176 30.7478 28.4466C30.4526 28.6925 30.0836 28.8155 29.6409 28.8155H28.8661ZM19.6791 11.8435C19.3101 11.8435 19.0026 11.7328 18.7567 11.5115C18.5107 11.2655 18.3877 10.9703 18.3877 10.626C18.3877 10.257 18.5107 9.96183 18.7567 9.74046C19.0026 9.49449 19.3101 9.3715 19.6791 9.3715H29.0875C29.4564 9.3715 29.7639 9.49449 30.0098 9.74046C30.2558 9.96183 30.3788 10.257 30.3788 10.626C30.3788 10.9703 30.2558 11.2655 30.0098 11.5115C29.7639 11.7328 29.4564 11.8435 29.0875 11.8435H19.6791ZM45.0022 29C43.0345 29 41.2758 28.5573 39.7262 27.6718C38.1765 26.7863 36.959 25.5687 36.0735 24.0191C35.188 22.4695 34.7452 20.7108 34.7452 18.743C34.7452 16.7506 35.188 14.9796 36.0735 13.43C36.959 11.8804 38.1765 10.6629 39.7262 9.77735C41.2758 8.89186 43.0345 8.44911 45.0022 8.44911C46.97 8.44911 48.7164 8.89186 50.2414 9.77735C51.791 10.6629 53.0086 11.8804 53.8941 13.43C54.7796 14.9796 55.2346 16.7506 55.2592 18.743C55.2592 20.7108 54.8042 22.4695 53.8941 24.0191C53.0086 25.5687 51.791 26.7863 50.2414 27.6718C48.7164 28.5573 46.97 29 45.0022 29ZM45.0022 26.4173C46.4289 26.4173 47.7079 26.0852 48.8394 25.4211C49.9709 24.757 50.8564 23.8469 51.4959 22.6908C52.1354 21.5348 52.4552 20.2188 52.4552 18.743C52.4552 17.2672 52.1354 15.9512 51.4959 14.7952C50.8564 13.6145 49.9709 12.6921 48.8394 12.028C47.7079 11.3639 46.4289 11.0318 45.0022 11.0318C43.5756 11.0318 42.2966 11.3639 41.1651 12.028C40.0336 12.6921 39.1358 13.6145 38.4717 14.7952C37.8322 15.9512 37.5124 17.2672 37.5124 18.743C37.5124 20.2188 37.8322 21.5348 38.4717 22.6908C39.1358 23.8469 40.0336 24.757 41.1651 25.4211C42.2966 26.0852 43.5756 26.4173 45.0022 26.4173ZM69.7871 29C67.8439 29 66.1098 28.5573 64.5848 27.6718C63.0844 26.7617 61.8914 25.5318 61.0059 23.9822C60.145 22.4326 59.7146 20.6862 59.7146 18.743C59.7146 16.7752 60.1327 15.0165 60.969 13.4669C61.8053 11.9173 62.9491 10.6997 64.4003 9.81425C65.8515 8.90416 67.5241 8.44911 69.4181 8.44911C70.9185 8.44911 72.296 8.74428 73.5504 9.33461C74.8295 9.92494 75.9486 10.8104 76.9079 11.9911C77.1785 12.2863 77.2769 12.606 77.2031 12.9504C77.1293 13.2701 76.9202 13.553 76.5759 13.799C76.3053 13.9958 75.9978 14.0696 75.6535 14.0204C75.3337 13.9466 75.0508 13.7621 74.8049 13.4669C73.3782 11.8435 71.5827 11.0318 69.4181 11.0318C68.0407 11.0318 66.8231 11.3639 65.7654 12.028C64.7324 12.6921 63.9207 13.6022 63.3303 14.7583C62.7646 15.9143 62.4817 17.2426 62.4817 18.743C62.4817 20.2188 62.7892 21.5348 63.4041 22.6908C64.019 23.8469 64.8799 24.757 65.9868 25.4211C67.0937 26.0852 68.3604 26.4173 69.7871 26.4173C70.7464 26.4173 71.6196 26.2943 72.4067 26.0483C73.2184 25.7778 73.9317 25.3719 74.5466 24.8308C74.8418 24.5848 75.1492 24.4495 75.469 24.4249C75.7888 24.4003 76.0839 24.4987 76.3545 24.7201C76.6497 24.9907 76.8095 25.2981 76.8341 25.6425C76.8833 25.9869 76.7726 26.282 76.5021 26.528C74.7065 28.176 72.4681 29 69.7871 29ZM85.0879 22.0636L83.3538 20.1819L95.9721 8.78117C96.2672 8.5106 96.5747 8.38762 96.8945 8.41221C97.2142 8.41221 97.5094 8.5598 97.78 8.85496C98.0505 9.15013 98.1735 9.46989 98.1489 9.81425C98.1489 10.134 98.0013 10.4169 97.7062 10.6628L85.0879 22.0636ZM84.1655 28.8155C83.7473 28.8155 83.403 28.6925 83.1324 28.4466C82.8864 28.176 82.7634 27.8316 82.7634 27.4135V1.40204C82.7634 0.983883 82.8864 0.651822 83.1324 0.405851C83.403 0.135283 83.7473 0 84.1655 0C84.5836 0 84.9157 0.135283 85.1617 0.405851C85.4322 0.651822 85.5675 0.983883 85.5675 1.40204V27.4135C85.5675 27.8316 85.4322 28.176 85.1617 28.4466C84.9157 28.6925 84.5836 28.8155 84.1655 28.8155ZM97.8169 28.631C97.4971 28.9016 97.165 29.0123 96.8207 28.9631C96.4763 28.9385 96.1812 28.7663 95.9352 28.4466L87.7075 18.3372L89.6998 16.5662L98.0014 26.7863C98.2473 27.0814 98.358 27.4012 98.3334 27.7455C98.3088 28.0653 98.1366 28.3605 97.8169 28.631ZM107.732 28.8155C107.412 28.8155 107.129 28.7294 106.883 28.5573C106.637 28.3851 106.465 28.1637 106.367 27.8931L100.611 10.626C100.464 10.011 100.476 9.53138 100.648 9.18702C100.82 8.81807 101.165 8.63359 101.681 8.63359C102.001 8.63359 102.284 8.71968 102.53 8.89186C102.776 9.06404 102.96 9.33461 103.083 9.70356L108.212 25.3842H107.4L112.159 9.74046C112.258 9.4207 112.418 9.16243 112.639 8.96565C112.885 8.74427 113.193 8.63359 113.561 8.63359C113.93 8.63359 114.226 8.73198 114.447 8.92875C114.693 9.12553 114.865 9.3961 114.964 9.74046L119.502 25.0153H118.874L123.892 9.70356C124.138 8.99025 124.593 8.63359 125.257 8.63359C125.799 8.63359 126.168 8.84266 126.364 9.26081C126.561 9.65437 126.561 10.1094 126.364 10.626L120.609 27.8931C120.51 28.1637 120.338 28.3851 120.092 28.5573C119.871 28.7294 119.6 28.8155 119.28 28.8155C118.961 28.8155 118.665 28.7294 118.395 28.5573C118.149 28.3851 117.989 28.1637 117.915 27.8931L113.266 12.4707H113.709L109.06 27.8931C108.962 28.1883 108.79 28.422 108.544 28.5941C108.298 28.7417 108.027 28.8155 107.732 28.8155ZM132.498 28.8155C132.055 28.8155 131.698 28.6925 131.428 28.4466C131.182 28.176 131.059 27.8193 131.059 27.3766V10.0725C131.059 9.62977 131.182 9.28541 131.428 9.03944C131.698 8.76887 132.055 8.63359 132.498 8.63359C132.916 8.63359 133.248 8.76887 133.494 9.03944C133.764 9.28541 133.9 9.62977 133.9 10.0725V27.3766C133.9 27.8193 133.764 28.176 133.494 28.4466C133.248 28.6925 132.916 28.8155 132.498 28.8155ZM132.461 4.79644C131.92 4.79644 131.452 4.59966 131.059 4.20611C130.665 3.81255 130.468 3.33291 130.468 2.76718C130.468 2.15225 130.665 1.6726 131.059 1.32824C131.477 0.959286 131.957 0.774808 132.498 0.774808C133.014 0.774808 133.469 0.959286 133.863 1.32824C134.281 1.6726 134.49 2.15225 134.49 2.76718C134.49 3.33291 134.293 3.81255 133.9 4.20611C133.506 4.59966 133.027 4.79644 132.461 4.79644ZM150.136 29C148.193 29 146.459 28.5573 144.934 27.6718C143.433 26.7617 142.24 25.5318 141.355 23.9822C140.494 22.4326 140.064 20.6862 140.064 18.743C140.064 16.7752 140.482 15.0165 141.318 13.4669C142.154 11.9173 143.298 10.6997 144.749 9.81425C146.201 8.90416 147.873 8.44911 149.767 8.44911C151.268 8.44911 152.645 8.74428 153.9 9.33461C155.179 9.92494 156.298 10.8104 157.258 11.9911C157.528 12.2863 157.627 12.606 157.553 12.9504C157.479 13.2701 157.27 13.553 156.926 13.799C156.655 13.9958 156.348 14.0696 156.003 14.0204C155.683 13.9466 155.401 13.7621 155.155 13.4669C153.728 11.8435 151.932 11.0318 149.767 11.0318C148.39 11.0318 147.172 11.3639 146.115 12.028C145.081 12.6921 144.27 13.6022 143.679 14.7583C143.114 15.9143 142.831 17.2426 142.831 18.743C142.831 20.2188 143.138 21.5348 143.753 22.6908C144.368 23.8469 145.229 24.757 146.336 25.4211C147.443 26.0852 148.71 26.4173 150.136 26.4173C151.095 26.4173 151.969 26.2943 152.756 26.0483C153.568 25.7778 154.281 25.3719 154.896 24.8308C155.191 24.5848 155.499 24.4495 155.819 24.4249C156.138 24.4003 156.434 24.4987 156.704 24.7201C156.999 24.9907 157.159 25.2981 157.184 25.6425C157.233 25.9869 157.122 26.282 156.852 26.528C155.056 28.176 152.817 29 150.136 29ZM165.436 22.0636L163.702 20.1819L176.32 8.78117C176.616 8.5106 176.923 8.38762 177.243 8.41221C177.563 8.41221 177.858 8.5598 178.128 8.85496C178.399 9.15013 178.522 9.46989 178.497 9.81425C178.497 10.134 178.35 10.4169 178.055 10.6628L165.436 22.0636ZM164.514 28.8155C164.096 28.8155 163.751 28.6925 163.481 28.4466C163.235 28.176 163.112 27.8316 163.112 27.4135V1.40204C163.112 0.983883 163.235 0.651822 163.481 0.405851C163.751 0.135283 164.096 0 164.514 0C164.932 0 165.264 0.135283 165.51 0.405851C165.781 0.651822 165.916 0.983883 165.916 1.40204V27.4135C165.916 27.8316 165.781 28.176 165.51 28.4466C165.264 28.6925 164.932 28.8155 164.514 28.8155ZM178.165 28.631C177.845 28.9016 177.513 29.0123 177.169 28.9631C176.825 28.9385 176.529 28.7663 176.284 28.4466L168.056 18.3372L170.048 16.5662L178.35 26.7863C178.596 27.0814 178.706 27.4012 178.682 27.7455C178.657 28.0653 178.485 28.3605 178.165 28.631Z" fill="#5FE90A"/>
</svg>
