<svg width="32" height="33" viewBox="0 0 32 33" fill="none" xmlns="http://www.w3.org/2000/svg">
<path d="M16 32.3458C24.8366 32.3458 32 25.1824 32 16.3458C32 7.50927 24.8366 0.345825 16 0.345825C7.16344 0.345825 0 7.50927 0 16.3458C0 25.1824 7.16344 32.3458 16 32.3458Z" fill="#F5F5F5"/>
<g clip-path="url(#clip0_27_58)">
<path d="M24.7296 11.4204C24.3519 11.5879 23.9598 11.72 23.5575 11.8157C24.0008 11.3944 24.3341 10.8675 24.5222 10.2794C24.5759 10.1114 24.3935 9.96626 24.2419 10.0562C23.6822 10.3882 23.0793 10.6372 22.4499 10.7965C22.4134 10.8057 22.3757 10.8104 22.3379 10.8104C22.2233 10.8104 22.1118 10.7679 22.0241 10.6906C21.3545 10.1004 20.4933 9.77539 19.5991 9.77539C19.2122 9.77539 18.8216 9.8357 18.438 9.95465C17.2496 10.3232 16.3327 11.3035 16.045 12.513C15.937 12.9666 15.9078 13.4207 15.9581 13.8625C15.9638 13.9133 15.9398 13.9487 15.925 13.9653C15.899 13.9945 15.8622 14.0112 15.8239 14.0112C15.8197 14.0112 15.8153 14.011 15.8109 14.0106C13.2096 13.7689 10.8638 12.5156 9.20567 10.4817C9.12112 10.378 8.95898 10.3907 8.89158 10.5063C8.56688 11.0633 8.39529 11.7005 8.39529 12.3488C8.39529 13.3424 8.79447 14.2787 9.48785 14.9613C9.19627 14.8922 8.91405 14.7833 8.65189 14.6377C8.52506 14.5672 8.36901 14.6578 8.36723 14.8029C8.34907 16.2789 9.21326 17.5923 10.5078 18.1837C10.4818 18.1844 10.4557 18.1846 10.4296 18.1846C10.2244 18.1846 10.0166 18.1648 9.8121 18.1257C9.66927 18.0985 9.54928 18.234 9.59363 18.3724C10.0138 19.6843 11.1434 20.6513 12.495 20.8708C11.3732 21.6239 10.0668 22.0211 8.70714 22.0211L8.28325 22.0209C8.15265 22.0209 8.04219 22.106 8.00891 22.2325C7.97613 22.3571 8.03652 22.4885 8.14789 22.5533C9.68004 23.445 11.4277 23.9162 13.2026 23.9162C14.7563 23.9162 16.2096 23.6079 17.5223 22.9999C18.7256 22.4424 19.789 21.6456 20.6829 20.6315C21.5156 19.6868 22.1667 18.5963 22.6182 17.3903C23.0485 16.2406 23.276 15.0139 23.276 13.8428V13.787C23.2759 13.5989 23.361 13.422 23.5094 13.3016C24.0724 12.8444 24.5628 12.3062 24.9667 11.702C25.0733 11.5425 24.9051 11.3426 24.7296 11.4204Z" fill="#76A9EA"/>
</g>
<defs>
<clipPath id="clip0_27_58">
<rect width="17" height="17" fill="white" transform="translate(8 8.34583)"/>
</clipPath>
</defs>
</svg>
